<?xml version="1.0" encoding="utf-8"?>
<!-- Generator: Adobe Illustrator 25.0.0, SVG Export Plug-In . SVG Version: 6.00 Build 0)  -->
<svg version="1.1" id="Layer_1" xmlns="http://www.w3.org/2000/svg" xmlns:xlink="http://www.w3.org/1999/xlink" x="0px" y="0px"
	 viewBox="0 0 24 24" style="enable-background:new 0 0 24 24;" xml:space="preserve">
<style type="text/css">
	.st0{fill:#FFFFFF;}
</style>
<path class="st0" d="M6.9,0.4c0,0,1,0.1,1.4,1.1c0,0,1.1,2.5,2,5c1.4,3.3,3.2,7.6,4.7,11.1H1.2c-0.8,0-1.2-0.5-1.2-0.5
	c0.8,1.4,3,5.6,3,5.6c0.4,0.5,0.8,0.8,1.4,0.8c1.3,0,3.2-1.3,3.2-1.3l7.4-4.6c1.4,3.4,2.5,6,2.5,6H24c0.1-0.1-9.3-22.4-9.4-22.5
	c-0.1-0.1-0.3-0.6-1-0.6L6.9,0.4z M6.6,1.3C6,1.3,5.8,1.8,5.7,1.9L0.4,14.5c-0.3,0.9-0.1,1.9,1.5,1.9H6l3.7-8.8
	C9,5.9,8.3,4.1,7.6,2.4C7.5,2.1,7.2,1.3,6.6,1.3z"/>
</svg>
