<?xml version="1.0" encoding="utf-8"?>
<!-- Generator: Adobe Illustrator 25.0.0, SVG Export Plug-In . SVG Version: 6.00 Build 0)  -->
<svg version="1.1" id="Layer_1" xmlns="http://www.w3.org/2000/svg" xmlns:xlink="http://www.w3.org/1999/xlink" x="0px" y="0px"
	 viewBox="0 0 24 24" style="enable-background:new 0 0 24 24;" xml:space="preserve">
<style type="text/css">
	.st0{fill:#FFFFFF;}
</style>
<path class="st0" d="M0,16.4V1.1C0,0.5,0.5,0,1.1,0h21.7c0.6,0,1.1,0.5,1.1,1.1v14.8c-0.7-0.4-1.5-0.6-2.4-0.6
	c-1.3,0-2.2,0.3-2.9,0.9c-0.6,0.6-1,1.3-1,2.2c0,1,0.3,1.7,1,2.1c0.4,0.3,1.1,0.5,2.1,0.8l1,0.2c0.6,0.1,1.1,0.3,1.4,0.5
	c0.3,0.2,0.4,0.4,0.4,0.8c0,0.6-0.3,1-0.9,1.1l0,0h-2.2c-0.3-0.1-0.5-0.3-0.7-0.5c-0.2-0.2-0.3-0.5-0.4-1h-2c0,0.6,0.1,1,0.3,1.5
	h-1.7c0.2-0.4,0.3-0.8,0.3-1.3c0-0.9-0.3-1.5-0.9-2c-0.4-0.3-0.9-0.5-1.7-0.7l-1.7-0.4c-0.7-0.1-1.1-0.3-1.3-0.4
	c-0.3-0.2-0.5-0.5-0.5-0.8c0-0.4,0.2-0.7,0.5-0.9c0.3-0.2,0.8-0.3,1.3-0.3c0.5,0,0.9,0.1,1.2,0.3c0.5,0.3,0.8,0.7,0.8,1.3h2
	c0-1-0.4-1.9-1.1-2.4c-0.7-0.6-1.6-0.8-2.7-0.8c-1.3,0-2.2,0.3-2.9,0.9c-0.6,0.6-1,1.3-1,2.2c0,1,0.3,1.7,1,2.1
	c0.4,0.3,1.1,0.5,2.1,0.8l1,0.2c0.6,0.1,1.1,0.3,1.4,0.5c0.3,0.2,0.4,0.4,0.4,0.8c0,0.6-0.3,0.9-0.9,1.1h-2.2
	c-0.3-0.1-0.5-0.3-0.7-0.5c-0.2-0.2-0.3-0.6-0.4-1h-2c0,0.6,0.1,1,0.3,1.5H6.6c0.3-0.5,0.6-1.1,0.7-1.8H5.2
	c-0.1,0.5-0.3,0.9-0.5,1.1c-0.3,0.3-0.6,0.5-1,0.6H2.4c-0.5-0.1-0.8-0.4-1.1-0.8c-0.5-0.6-0.7-1.4-0.7-2.5c0-1.1,0.2-2,0.7-2.6
	c0.5-0.6,1-0.9,1.8-0.9c0.8,0,1.3,0.2,1.7,0.6C5,18.2,5.1,18.5,5.3,19h2.1c0-0.6-0.3-1.2-0.7-1.9c-0.8-1.1-2-1.6-3.7-1.6
	c-1.2,0-2.1,0.4-2.9,1.1L0,16.4L0,16.4z M23.9,20.1v-1.6h-0.5c0-0.6-0.3-1-0.8-1.3c-0.3-0.2-0.7-0.2-1.2-0.2c-0.5,0-1,0.1-1.3,0.3
	c-0.3,0.2-0.5,0.5-0.5,0.9c0,0.4,0.2,0.6,0.5,0.8c0.2,0.1,0.6,0.3,1.3,0.4l1.7,0.4C23.5,19.9,23.8,20,23.9,20.1L23.9,20.1L23.9,20.1
	z"/>
</svg>
