<?xml version="1.0" encoding="utf-8"?>
<!-- Generator: Adobe Illustrator 25.0.0, SVG Export Plug-In . SVG Version: 6.00 Build 0)  -->
<svg version="1.1" id="Layer_1" xmlns="http://www.w3.org/2000/svg" xmlns:xlink="http://www.w3.org/1999/xlink" x="0px" y="0px"
	 viewBox="0 0 512 512" style="enable-background:new 0 0 512 512;" xml:space="preserve">
<style type="text/css">
	.st0{fill:#FCFCFC;}
</style>
<path class="st0" d="M189.3,120.5v58.9L64.6,236.5l124.8,59.1v57.7L0,263.5v-52.5L189.3,120.5z M318.2,173.8c0-15-13.8-24.5-24.8-17
	c-11,7.5-11,26.4,0,33.9C304.4,198.3,318.2,188.8,318.2,173.8z M273.1,220c-37.3-20.5-37.3-71.9,0-92.3
	c37.3-20.5,84.2,5.3,84.2,46.2S310.4,240.4,273.1,220z M472.9,339.9c0-15-13.8-24.5-24.8-17c-11,7.5-11,26.4,0,33.9
	C459.1,364.4,472.9,355,472.9,339.9z M427.8,386.1c-37.3-20.5-37.3-71.9,0-92.3S512,299.1,512,340S465.1,406.6,427.8,386.1z
	 M313.1,393.3l194.4-274.6h-66.4L243.5,393.3H313.1z"/>
</svg>
