<?xml version="1.0" encoding="utf-8"?>
<!-- Generator: Adobe Illustrator 25.0.0, SVG Export Plug-In . SVG Version: 6.00 Build 0)  -->
<svg version="1.1" id="Layer_1" xmlns="http://www.w3.org/2000/svg" xmlns:xlink="http://www.w3.org/1999/xlink" x="0px" y="0px"
	 viewBox="0 0 32 32" style="enable-background:new 0 0 32 32;" xml:space="preserve">
<style type="text/css">
	.st0{fill:#FFFFFF;}
</style>
<path class="st0" d="M2,2v28h28V2H2z M17.2,23.8c0,2.7-1.6,4-3.9,4c-2.1,0-3.3-1.1-3.9-2.4l2.1-1.3c0.4,0.7,0.8,1.4,1.7,1.4
	c0.9,0,1.4-0.3,1.4-1.7v-8.9h2.6V23.8z M23.5,27.8c-2.4,0-4-1.2-4.8-2.7l2.1-1.2c0.6,0.9,1.3,1.6,2.6,1.6c1.1,0,1.8-0.5,1.8-1.3
	c0-0.9-0.7-1.2-1.9-1.8l-0.7-0.3c-1.9-0.8-3.2-1.8-3.2-4c0-2,1.5-3.5,3.9-3.5c1.7,0,2.9,0.6,3.7,2.1l-2,1.3
	c-0.5-0.8-0.9-1.1-1.7-1.1c-0.8,0-1.3,0.5-1.3,1.1c0,0.8,0.5,1.1,1.6,1.6l0.7,0.3c2.2,1,3.5,1.9,3.5,4.1
	C27.8,26.5,26,27.8,23.5,27.8L23.5,27.8z"/>
</svg>
