<?xml version="1.0" encoding="utf-8"?>
<!-- Generator: Adobe Illustrator 25.0.0, SVG Export Plug-In . SVG Version: 6.00 Build 0)  -->
<svg version="1.1" id="Layer_1" xmlns="http://www.w3.org/2000/svg" xmlns:xlink="http://www.w3.org/1999/xlink" x="0px" y="0px"
	 viewBox="0 0 24 24" style="enable-background:new 0 0 24 24;" xml:space="preserve">
<style type="text/css">
	.st0{fill:#FFFFFF;}
</style>
<path class="st0" d="M17.1,9.5c-1.3-5.6-4.2-7.4-4.6-8.1C12.2,1,12,0.6,11.8,0.1l0-0.1c0,0,0,0,0,0v0v0v0v0v0v0c0,0,0,0,0,0v0v0
	c0,0,0,0,0,0s0,0,0,0v0v0l0,0.1v0v0c0,0,0,0,0,0v0h0v0h0v0.1h0v0h0v0v0c0,0,0,0,0,0v0v0c0,0,0,0,0,0l0,0l0,0v0h0v0h0v0h0v0h0v0h0v0
	h0v0h0v0h0v0h0v0h0v0l0,0v0c0,0,0,0,0,0c0,0,0,0,0,0c0,0,0,0,0,0s0,0,0,0v0.1h0v0h0v0h0v0h0v0h-0.1v0h0v0h0v0h0v0h0v0h0v0h0v0.1h0v0
	h0v0h0v0c0,0,0,0,0,0l0,0c0,0,0,0,0,0c0,0,0,0,0,0l0,0l-0.1,0.1c-0.1,0-0.1,0.1-0.2,0.2c-0.2,0.1-0.4,0.3-0.6,0.6l0,0
	c-2.2,2.4-3.6,5.6-3.7,9.1v0c0,0.2,0,0.3,0,0.5c0,0.2,0,0.4,0,0.7l0,0v0C6.7,14,7.2,15.6,8,17.1L8,17c0.3,0.5,0.6,1,0.9,1.4l0,0
	c0.7,1,1.6,1.8,2.5,2.5l0,0c0.3,0.8,0.4,1.6,0.4,2.6c0,0.1,0,0.2,0,0.2v0l0.6,0.2c0-0.3,0-0.7,0-1c0-0.5,0-1.1,0.1-1.6l0,0.1
	c0.1-0.3,0.2-0.5,0.3-0.7l0,0c0.3-0.2,0.6-0.4,0.8-0.7l0,0c0,0,0,0,0-0.1c2.2-2.1,3.6-5.1,3.6-8.3c0-0.8-0.1-1.6-0.2-2.3L17.1,9.5
	L17.1,9.5z"/>
</svg>
