<?xml version="1.0" encoding="utf-8"?>
<!-- Generator: Adobe Illustrator 25.4.8, SVG Export Plug-In . SVG Version: 6.00 Build 0)  -->
<svg version="1.1" id="Layer_1" xmlns="http://www.w3.org/2000/svg" xmlns:xlink="http://www.w3.org/1999/xlink" x="0px" y="0px"
	 viewBox="0 0 32 32" style="enable-background:new 0 0 32 32;" xml:space="preserve">
<style type="text/css">
	.st0{fill:#FFFFFF;}
</style>
<path class="st0" d="M8.2,10.4l-2.2,0.5l0,7.1c0,1.3,1,2.2,2.3,2.2c0.7,0,1.3-0.1,1.6-0.3v-1.7c-0.3,0.1-1.7,0.5-1.7-0.8v-3.2h1.7
	v-1.9H8.3L8.2,10.4z M12.7,13l-0.1-0.7h-1.9V20h2.2v-5.2c0.5-0.7,1.4-0.6,1.7-0.5v-2C14.3,12.3,13.2,12.1,12.7,13z M17.3,9.4
	l-2.2,0.5v1.8l2.2-0.5V9.4z M2.2,14.6c0-0.3,0.3-0.5,0.8-0.5c0.7,0,1.5,0.2,2.2,0.6v-2.1c-0.7-0.3-1.5-0.4-2.2-0.4
	c-1.8,0-3,0.9-3,2.5c0,2.5,3.4,2.1,3.4,3.1c0,0.4-0.4,0.5-0.8,0.5c-0.7,0-1.7-0.3-2.4-0.7v2c0.8,0.4,1.7,0.5,2.4,0.5
	c1.8,0,3.1-0.8,3.1-2.4C5.6,15.1,2.2,15.6,2.2,14.6z M32,16.3c0-2.3-1.1-4.1-3.2-4.1s-3.4,1.8-3.4,4.1c0,2.7,1.5,3.9,3.7,3.9
	c1.1,0,1.9-0.2,2.5-0.6v-1.7c-0.6,0.3-1.3,0.5-2.2,0.5c-0.9,0-1.6-0.3-1.7-1.3H32C32,17,32,16.5,32,16.3z M27.6,15.4
	c0-1,0.6-1.4,1.2-1.4c0.5,0,1.1,0.4,1.1,1.4H27.6z M22,12.2c-0.9,0-1.4,0.4-1.7,0.7l-0.1-0.6h-2v10.2l2.2-0.5l0-2.5
	c0.3,0.2,0.8,0.6,1.6,0.6c1.6,0,3-1.2,3-4C25,13.6,23.5,12.2,22,12.2z M21.4,18.3c-0.5,0-0.8-0.2-1-0.4l0-3.3
	c0.2-0.3,0.5-0.4,1.1-0.4c0.8,0,1.4,0.9,1.4,2.1C22.8,17.4,22.3,18.3,21.4,18.3z M15.1,20h2.2v-7.7h-2.2L15.1,20z"/>
</svg>
