<svg id="Layer_10" data-name="Layer 10" xmlns="http://www.w3.org/2000/svg" viewBox="0 0 1903 938"><defs><style>.cls-1{fill:#fff;}</style></defs><path class="cls-1" d="M1541.45,371.74c7.62,2.39,15.49,4.2,22.83,7.27,37.43,15.72,54.94,45.41,56,84.71s.23,78.6.2,117.91a17.37,17.37,0,0,1-.74,3.11c-11.49-9.65-23.73-16.94-38.35-18.41-10.21-1-20.53-.79-30.78-1.47-19.1-1.27-38.78-.33-57.16-4.74-37.5-9-62.9-43.07-66-81.57-4.83-59.7,38.11-99.6,79.5-105.57.71-.11,1.32-.82,2-1.24Zm35.79,148.69c0-12.39.27-25.85-.09-39.29-.27-10.24-.09-20.73-2.28-30.63-5.47-24.74-28.47-38.17-57.94-35-24.84,2.63-45.19,24.62-46.09,49.81-1.07,29.72,14.09,51.57,41.52,54.68C1533.4,522.35,1554.92,520.43,1577.24,520.43Z"/></svg>