<svg id="Layer_7" data-name="Layer 7" xmlns="http://www.w3.org/2000/svg" viewBox="0 0 1903 938"><defs><style>.cls-1{fill:#fff;}</style></defs><path class="cls-1" d="M1743.43,151.05c17.89,16.58,36.89,25.92,58.89,28,12.25,1.17,24.71.25,37,1.51,18.71,1.93,37.85,2.92,55.84,7.85,47.31,13,73.74,46,82.45,93.42,2.71,14.76,3.71,30,4,45,.61,28.71.07,57.46.27,86.19,0,5.15-1.33,7.08-6.78,7-35.51-.53-71.06,0-106.54-1.33-28.37-1.05-55.2-8.68-78.27-26.25-26.68-20.31-39.15-48.68-43.84-80.81a319.72,319.72,0,0,1-2.87-42.88c-.39-35.78-.13-71.58-.13-107.37Z"/></svg>