<svg id="Shape" xmlns="http://www.w3.org/2000/svg" viewBox="0 0 1903 938"><defs><style>.cls-1{fill:#fff;}</style></defs><path class="cls-1" d="M776,828c2.09-5.75,3.47-11.91,6.42-17.19A48.69,48.69,0,0,1,834,786.54a49.35,49.35,0,0,1,40,42.05,50.21,50.21,0,0,1,.3,7q0,22.3,0,44.61v4.13H826.16c-24.49,0-44.13-15.77-49.39-39.62a11.81,11.81,0,0,0-.78-1.93Zm78.12,36.39c0-11.75.92-23.21-.23-34.45-1.54-14.94-15.94-25.32-31.54-24.23-14.48,1-26.45,14-26.73,29-.28,14.79,11.29,28.55,25.92,29.57C832.37,865,843.3,864.34,854.11,864.34Z"/></svg>