<svg id="Layer_17" data-name="Layer 17" xmlns="http://www.w3.org/2000/svg" viewBox="0 0 1903 938"><defs><style>.cls-1{fill:#fff;}</style></defs><path class="cls-1" d="M1897.53,714.08v10.6c0,91.9.62,183.8-.22,275.69-.54,59.9-17.14,115.07-52.55,164.39a288.5,288.5,0,0,1-95.14,84.87c-31.06,17.33-64.11,28.9-99.47,33.26-51.71,6.37-101.83,1-150.2-19.69a287.24,287.24,0,0,1-101.44-72.27c-35.79-39.69-59.06-86.14-68.1-139-3.32-19.44-5.45-39.43-5-59.1,1.11-50.55,15.21-97.74,41.35-141.18a274.32,274.32,0,0,1,51.92-63.19c23.64-21.19,49.82-38.61,79.38-51.07a297.47,297.47,0,0,1,111.81-23.19c92.71-.3,185.42-.16,278.13-.16Zm-71.6,72.35c-3-.21-4.61-.43-6.21-.43-69.12,0-138.24-.45-207.35.29a245.07,245.07,0,0,0-53.55,6.52c-50.83,12.08-90.92,41.08-121.64,82.86-27.15,36.94-39.92,79.26-40,124.66-.05,19.47,4,39.36,8.89,58.37,12,46.82,39.18,84.44,77.59,112.83,47.3,35,100.76,49.35,159.62,39.82,56.42-9.13,102.43-36.38,137.7-81.14,30.76-39,44.6-84.23,44.88-133.54.38-66.67.09-133.35.09-200Z"/></svg>