<svg id="Layer_12" data-name="Layer 12" xmlns="http://www.w3.org/2000/svg" viewBox="0 0 1903 938"><defs><style>.cls-1{fill:#fff;}</style></defs><path class="cls-1" d="M912.88,392.81a16.19,16.19,0,0,1,2.52-.63c58.22,0,116.48-1.17,174.67.41,77,2.08,147.94,64.33,161.82,140.21a253.55,253.55,0,0,1,3.9,42c.62,42.33.08,84.69.84,127,.19,10.57,3.56,21.08,5.59,32.24h-7.9q-83.94,0-167.89,0c-85.34,0-161.84-68-171.91-152.92a223.52,223.52,0,0,1-1.57-25.6c-.14-51.43-.07-102.85-.07-154.28Zm66.79,65.86c0,34.83-.75,68.6.17,102.32,1.61,59.3,50.69,106.39,109.86,106.48q45.39.06,90.77,0h8.28c0-34,0-66.76,0-99.52,0-47.52-31.81-90.81-77.4-104.2a126.24,126.24,0,0,0-32.69-4.86C1045.94,458.27,1013.2,458.67,979.67,458.67Z"/></svg>