<svg xmlns="http://www.w3.org/2000/svg" xmlns:xlink="http://www.w3.org/1999/xlink" viewBox="0 0 148.44 148.3"><defs><style>.cls-1{fill:none;}.cls-2{clip-path:url(#clip-path);}.cls-3{fill:#f2edeb;}</style><clipPath id="clip-path"><rect class="cls-1" x="-650.01" width="531.08" height="520.89"/></clipPath></defs><g id="Text"><g class="cls-2"><image width="2000" height="1335" transform="translate(-749.08) scale(0.39)" xlink:href="../../../../../Pictures/Saved%20Pictures/20220129-frozen.lake-0063.jpg"/></g></g><g id="Layer_18" data-name="Layer 18"><path class="cls-3" d="M74.13,0c41.55,0,74.45,32.94,74.31,74.37-.15,40.63-33.71,74-74.43,73.93-41.41,0-74.1-33.07-74-74.77C.09,32.19,32.55,0,74.13,0Zm-.58,114.22c22.82.12,41.2-17.7,41.43-40.17.22-21.71-18.42-40.51-40.38-40.74A40.5,40.5,0,0,0,33.51,73.75,40,40,0,0,0,73.55,114.22Z"/></g></svg>