<svg xmlns="http://www.w3.org/2000/svg" viewBox="0 0 305.6 305.05"><defs><style>.cls-1{fill:#f2edeb;}</style></defs><g id="Layer_7" data-name="Layer 7"><path class="cls-1" d="M5.21,0c49.5,0,99-.08,148.5.08A158.83,158.83,0,0,1,213.4,12.49a151.42,151.42,0,0,1,42.38,27.26A146.44,146.44,0,0,1,283.5,73.48a150.66,150.66,0,0,1,22.07,75.38,166.4,166.4,0,0,1-2.68,31.55c-4.82,28.2-17.24,53-36.36,74.19a153.2,153.2,0,0,1-54.15,38.58c-25.82,11.07-52.58,13.92-80.19,10.52a144.78,144.78,0,0,1-53.11-17.76,154.06,154.06,0,0,1-50.79-45.31C9.38,214.3.53,184.85.23,152.86-.21,103.81.12,54.74.12,5.68V0ZM38.34,44.09c0,35.6-.15,71.2,0,106.8.15,26.32,7.54,50.46,24,71.29,18.83,23.9,43.4,38.45,73.52,43.32,31.42,5.09,60-2.59,85.22-21.26,20.51-15.15,35-35.24,41.42-60.24,2.6-10.15,4.77-20.76,4.75-31.16-.06-24.23-6.87-46.83-21.37-66.55C229.49,64,208.09,48.5,181,42.05a130.46,130.46,0,0,0-28.59-3.48c-36.9-.39-73.8-.16-110.7-.15-.86,0-1.71.11-3.32.22Z"/></g></svg>