<svg xmlns="http://www.w3.org/2000/svg" viewBox="0 0 217.9 240"><defs><style>.cls-1{fill:#f2edeb;}</style></defs><g id="Layer_7" data-name="Layer 7"><path class="cls-1" d="M91.8,240c-.74-.48-1.43-1.28-2.22-1.39-46.64-6.73-95-51.69-89.58-119C3.51,76.27,32.14,37.88,74.39,27.74c20.71-5,42.88-3.91,64.4-5.34,11.55-.77,23.18-.49,34.68-1.65C190,19.09,203.74,10.87,216.69,0a20.7,20.7,0,0,1,.83,3.51c0,44.29,1,88.6-.23,132.85s-20.92,77.73-63.1,95.44c-8.27,3.47-17.13,5.5-25.72,8.2ZM95.7,73c-30.91,3.51-48,28.13-46.79,61.61,1,28.38,23.94,53.16,51.93,56.13,33.21,3.52,59.12-11.61,65.29-39.49,2.46-11.15,2.26-23,2.57-34.5.4-15.15.1-30.32.1-44.28C143.65,72.46,119.4,70.3,95.7,73Z"/></g></svg>