<svg xmlns="http://www.w3.org/2000/svg" viewBox="0 0 265.6 264.35"><defs><style>.cls-1{fill:#fec026;}.cls-2{fill:#fff;}</style></defs><g id="Layer_18" data-name="Layer 18"><path class="cls-1" d="M132.92,0A132.38,132.38,0,0,1,265.59,131.26c.62,73.19-59.54,133.13-133.57,133.09C59.47,264.31-.92,203.29,0,131A132.32,132.32,0,0,1,132.92,0Z"/><path class="cls-2" d="M47.88,142.29H62.1v4.36H43.2V118.93H61.59v4.35H47.88Zm-.36-11.84H60.05v4.24H47.52Z"/><path class="cls-2" d="M67.32,146.65V118.93h3.85l11,20.23h-2L91,118.93h3.85l.07,27.72h-4.5V126.57h.9l-9.14,17H80.06l-9.36-17h1.08v20.08Z"/><path class="cls-2" d="M98.13,146.65l11.34-27.72h4.61l11.38,27.72h-4.93l-9.72-25h1.87l-9.76,25Zm5.22-6.42,1.3-4h13.57l1.26,4Z"/><path class="cls-2" d="M128.66,146.65V118.93h4.68v27.72Z"/><path class="cls-2" d="M140.15,146.65V118.93h4.68v23.36H158v4.36Z"/><path class="cls-2" d="M171.64,146.65V118.93h3.86l11,20.23h-2l10.83-20.23h3.85l.08,27.72h-4.5V126.57h.9l-9.15,17h-2.12l-9.36-17h1.08v20.08Z"/><path class="cls-2" d="M210.7,142.29h14.22v4.36H206V118.93h18.4v4.35H210.7Zm-.36-11.84h12.53v4.24H210.34Z"/></g></svg>