<svg xmlns="http://www.w3.org/2000/svg" viewBox="0 0 481.47 108.37"><defs><style>.cls-1{fill:#121212;}.cls-2{fill:#fdbe24;}</style></defs><g id="Layer_1" data-name="Layer 1"><path class="cls-1" d="M57.85,103.15a54.28,54.28,0,0,1-20.2-3.67A48.7,48.7,0,0,1,21.52,89.17,47,47,0,0,1,10.87,73.66,48.66,48.66,0,0,1,7.08,54.28,48.73,48.73,0,0,1,10.87,34.9,47.07,47.07,0,0,1,21.52,19.4,48.88,48.88,0,0,1,37.65,9.08a54.48,54.48,0,0,1,20.2-3.67A56.62,56.62,0,0,1,76.57,8.46a39.59,39.59,0,0,1,15.08,9.28L90,19.67a39.05,39.05,0,0,0-14.8-9A55.36,55.36,0,0,0,57.85,8a50.22,50.22,0,0,0-19,3.54A47.1,47.1,0,0,0,23.56,21.4a44.56,44.56,0,0,0-10.1,14.68,45.92,45.92,0,0,0-3.58,18.2,45.93,45.93,0,0,0,3.58,18.21,44.41,44.41,0,0,0,10.1,14.67A47,47,0,0,0,38.85,97a50.41,50.41,0,0,0,19,3.53,54.13,54.13,0,0,0,17.46-2.77A37.93,37.93,0,0,0,90,88.62l1.68,2.07A40.36,40.36,0,0,1,76.57,100,55.63,55.63,0,0,1,57.85,103.15ZM89,90.69V55.25h2.66V90.69Z"/><path class="cls-1" d="M126,102.74V5.83h2.81v96.91Z"/><path class="cls-1" d="M206.09,103.15a53.27,53.27,0,0,1-20-3.67,48,48,0,0,1-16-10.31,47.44,47.44,0,0,1-10.59-15.51,48.83,48.83,0,0,1-3.79-19.38,48.9,48.9,0,0,1,3.79-19.38,47.51,47.51,0,0,1,10.59-15.5,48.16,48.16,0,0,1,16-10.32,56.25,56.25,0,0,1,40,0,48.37,48.37,0,0,1,16,10.32,47.82,47.82,0,0,1,10.59,15.5,48.9,48.9,0,0,1,3.78,19.38,48.83,48.83,0,0,1-3.78,19.38,47.69,47.69,0,0,1-26.58,25.82A53.36,53.36,0,0,1,206.09,103.15Zm0-2.63a50.32,50.32,0,0,0,18.8-3.46A45.59,45.59,0,0,0,240,87.3a45,45,0,0,0,10-14.67,46.17,46.17,0,0,0,3.58-18.35,46.15,46.15,0,0,0-3.58-18.34,45,45,0,0,0-10-14.67,45.43,45.43,0,0,0-15.14-9.76,52.64,52.64,0,0,0-37.59,0,45.18,45.18,0,0,0-25.18,24.43,46.32,46.32,0,0,0-3.57,18.34,46.34,46.34,0,0,0,3.57,18.35A45.18,45.18,0,0,0,187.3,97.06,50.3,50.3,0,0,0,206.09,100.52Z"/><path class="cls-2" d="M323.34,104.12a57.59,57.59,0,0,1-20.89-3.67A49.27,49.27,0,0,1,285.83,90a48.22,48.22,0,0,1-11-15.78,49.28,49.28,0,0,1-3.93-19.94,49.27,49.27,0,0,1,3.93-19.93A47.82,47.82,0,0,1,285.9,18.57,50.25,50.25,0,0,1,302.59,8.11a61.45,61.45,0,0,1,42.91.42,43.56,43.56,0,0,1,16.83,12.11L350.55,31.58a37,37,0,0,0-12.06-8.51,35.26,35.26,0,0,0-14.16-2.84,38.45,38.45,0,0,0-14.1,2.49,32.55,32.55,0,0,0-18.44,17.86,34.41,34.41,0,0,0-2.67,13.7A34.46,34.46,0,0,0,291.79,68a32.55,32.55,0,0,0,18.44,17.86,38.45,38.45,0,0,0,14.1,2.49,35.43,35.43,0,0,0,14.16-2.84,36.14,36.14,0,0,0,12.06-8.65l11.78,10.94A44.24,44.24,0,0,1,345.5,100,57,57,0,0,1,323.34,104.12Z"/><path class="cls-2" d="M423.76,104.12a58.44,58.44,0,0,1-21.1-3.74,50.46,50.46,0,0,1-16.9-10.52A47.59,47.59,0,0,1,374.68,74a49.05,49.05,0,0,1-3.93-19.73,49.37,49.37,0,0,1,3.93-19.86,46.82,46.82,0,0,1,11.08-15.78A51.22,51.22,0,0,1,402.59,8.18a58.32,58.32,0,0,1,21.17-3.73,59,59,0,0,1,21,3.66A49.64,49.64,0,0,1,461.56,18.5a47.36,47.36,0,0,1,11,15.85,49.89,49.89,0,0,1,3.93,19.93,49.42,49.42,0,0,1-3.93,19.87,48.38,48.38,0,0,1-11,15.85,49,49,0,0,1-16.76,10.45A58.76,58.76,0,0,1,423.76,104.12Zm0-15.78a36.59,36.59,0,0,0,13.68-2.49A32.22,32.22,0,0,0,455.53,68a35.33,35.33,0,0,0,2.6-13.71,36.2,36.2,0,0,0-2.53-13.7,31.21,31.21,0,0,0-7.22-10.8,33.16,33.16,0,0,0-10.94-7.06,36.59,36.59,0,0,0-13.68-2.49A37.65,37.65,0,0,0,410,22.72a31.48,31.48,0,0,0-11,7.13,34.31,34.31,0,0,0-7.29,10.8A33.89,33.89,0,0,0,389,54.28a34.17,34.17,0,0,0,10,24.44,31.48,31.48,0,0,0,11,7.13A37.65,37.65,0,0,0,423.76,88.34Z"/></g></svg>